<?xml version="1.0" encoding="UTF-8" standalone="no"?>
<!DOCTYPE svg PUBLIC "-//W3C//DTD SVG 1.1//EN"
 "http://www.w3.org/Graphics/SVG/1.1/DTD/svg11.dtd">
<!-- Generated by graphviz version 2.30.1 (20180420.1509)
 -->
<!-- Title: G Pages: 1 -->
<svg width="134pt" height="132pt"
 viewBox="0.00 0.00 134.00 132.00" xmlns="http://www.w3.org/2000/svg" xmlns:xlink="http://www.w3.org/1999/xlink">
<g id="graph0" class="graph" transform="scale(1 1) rotate(0) translate(4 128)">
<title>G</title>
<polygon fill="white" stroke="white" points="-4,5 -4,-128 131,-128 131,5 -4,5"/>
<g id="clust1" class="cluster"><title>cluster_Global</title>
<path fill="none" stroke="gray" d="M20,-8C20,-8 106,-8 106,-8 112,-8 118,-14 118,-20 118,-20 118,-104 118,-104 118,-110 112,-116 106,-116 106,-116 20,-116 20,-116 14,-116 8,-110 8,-104 8,-104 8,-20 8,-20 8,-14 14,-8 20,-8"/>
<text text-anchor="middle" x="63" y="-103.2" font-family="Times,serif" font-size="11.00" fill="gray">Global</text>
</g>
<g id="clust2" class="cluster"><title>cluster_\spfalz</title>
<path fill="none" stroke="gray" d="M28,-16C28,-16 98,-16 98,-16 104,-16 110,-22 110,-28 110,-28 110,-76 110,-76 110,-82 104,-88 98,-88 98,-88 28,-88 28,-88 22,-88 16,-82 16,-76 16,-76 16,-28 16,-28 16,-22 22,-16 28,-16"/>
<text text-anchor="middle" x="63" y="-75.2" font-family="Times,serif" font-size="11.00" fill="gray">spfalz</text>
</g>
<!-- \\spfalz\\db_mysqli -->
<g id="node1" class="node"><title>\\spfalz\\db_mysqli</title>
<polygon fill="none" stroke="black" points="101.5,-60 24.5,-60 24.5,-24 101.5,-24 101.5,-60"/>
<text text-anchor="middle" x="63" y="-39.2" font-family="Courier,monospace" font-size="11.00">db_mysqli</text>
</g>
</g>
</svg>
